<svg width="100" height="100" viewBox="0 0 100 100" version="1.1" xmlns="http://www.w3.org/2000/svg" xmlns:xlink="http://www.w3.org/1999/xlink" xmlns:figma="http://www.figma.com/figma/ns">
<title>Frame</title>
<desc>Created using Figma</desc>
<g id="Canvas" transform="translate(113 382)" figma:type="canvas">
<mask id="mask0_alpha" mask-type="alpha">
<path d="M -113 -382L -13 -382L -13 -282L -113 -282L -113 -382Z" fill="#FFFFFF"/>
</mask>
<g id="Frame" style="mix-blend-mode:normal;" mask="url(#mask0_alpha)" figma:type="frame">
<g id="ham" style="mix-blend-mode:normal;" figma:type="frame">
<g id="Settings" style="mix-blend-mode:normal;" figma:type="frame">
<g id="Vector" style="mix-blend-mode:normal;" figma:type="vector">
<use xlink:href="#path0_fill" transform="translate(-113 -377)" fill="#FFFFFF" style="mix-blend-mode:normal;"/>
</g>
<g id="Vector" style="mix-blend-mode:normal;" figma:type="vector">
<use xlink:href="#path1_fill" transform="translate(-113 -357)" fill="#FFFFFF" style="mix-blend-mode:normal;"/>
</g>
<g id="Vector" style="mix-blend-mode:normal;" figma:type="vector">
<use xlink:href="#path2_fill" transform="translate(-113 -370)" fill="#FFFFFF" style="mix-blend-mode:normal;"/>
</g>
</g>
<mask id="mask1_alpha" mask-type="alpha">
<path d="M -113 -382L -13 -382L -13 -282L -113 -282L -113 -382Z" fill="#FFFFFF"/>
</mask>
<g id="Group" style="mix-blend-mode:normal;" mask="url(#mask1_alpha)" figma:type="frame">
</g>
<mask id="mask2_alpha" mask-type="alpha">
<path d="M -113 -382L -13 -382L -13 -282L -113 -282L -113 -382Z" fill="#FFFFFF"/>
</mask>
<g id="Group" style="mix-blend-mode:normal;" mask="url(#mask2_alpha)" figma:type="frame">
</g>
<mask id="mask3_alpha" mask-type="alpha">
<path d="M -113 -382L -13 -382L -13 -282L -113 -282L -113 -382Z" fill="#FFFFFF"/>
</mask>
<g id="Group" style="mix-blend-mode:normal;" mask="url(#mask3_alpha)" figma:type="frame">
</g>
<mask id="mask4_alpha" mask-type="alpha">
<path d="M -113 -382L -13 -382L -13 -282L -113 -282L -113 -382Z" fill="#FFFFFF"/>
</mask>
<g id="Group" style="mix-blend-mode:normal;" mask="url(#mask4_alpha)" figma:type="frame">
</g>
<mask id="mask5_alpha" mask-type="alpha">
<path d="M -113 -382L -13 -382L -13 -282L -113 -282L -113 -382Z" fill="#FFFFFF"/>
</mask>
<g id="Group" style="mix-blend-mode:normal;" mask="url(#mask5_alpha)" figma:type="frame">
</g>
<mask id="mask6_alpha" mask-type="alpha">
<path d="M -113 -382L -13 -382L -13 -282L -113 -282L -113 -382Z" fill="#FFFFFF"/>
</mask>
<g id="Group" style="mix-blend-mode:normal;" mask="url(#mask6_alpha)" figma:type="frame">
</g>
</g>
</g>
</g>
<defs>
<path id="path0_fill" d="M 1 2L 31 2C 31.552 2 32 1.552 32 1C 32 0.448 31.552 8.88178e-16 31 8.88178e-16L 1 8.88178e-16C 0.448 8.88178e-16 0 0.448 0 1C 0 1.552 0.448 2 1 2Z"/>
<path id="path1_fill" d="M 31 0L 1 0C 0.448 0 0 0.448 0 1C 0 1.552 0.448 2 1 2L 31 2C 31.552 2 32 1.552 32 1C 32 0.448 31.552 0 31 0Z"/>
<path id="path2_fill" d="M 28 0C 26.138 0 24.587 1.278 24.141 3L 1 3C 0.448 3 0 3.448 0 4C 0 4.552 0.448 5 1 5L 24.141 5C 24.587 6.722 26.138 8 28 8C 30.209 8 32 6.209 32 4C 32 1.791 30.209 0 28 0ZM 28 6C 26.895 6 26 5.104 26 4C 26 2.896 26.895 2 28 2C 29.105 2 30 2.895 30 4C 30 5.104 29.105 6 28 6Z"/>
</defs>
</svg>
